# xmcd
#
# Track frame offsets:
# 150
# 12820
# 31356
# 43406
# 60555
# 80376
# 93639
# 107597
# 128254
# 141000
#
# Disc length: 2127 seconds
#
# Revision: 0
# Processed by: cddbd v1.5.1PL2 Copyright (c) Steve Scherf et al.
# Submitted via: Audion 3.0.2 (http://www.panic.com/audion/)
#
DISCID=78084d0a
DTITLE=Anita Pearce - Grace
DYEAR=1900
DGENRE=
TTITLE0=Marvellous Grace
TTITLE1=When He Reaches Down his Hand
TTITLE2=He Brought Me Out
TTITLE3=The Other Side of the Cross
TTITLE4=Who Am I
TTITLE5=He  Set Me Free
TTITLE6=Born Again
TTITLE7=Storms Never Last
TTITLE8=I'm Redeemed
TTITLE9=Great Is Thy Faithfulness
EXTD=
EXTT0=
EXTT1=
EXTT2=
EXTT3=
EXTT4=
EXTT5=
EXTT6=
EXTT7=
EXTT8=
EXTT9=
PLAYORDER=
